<svg width="581" height="85" viewBox="0 0 581 85" fill="none" xmlns="http://www.w3.org/2000/svg">
<path d="M125.461 6.83063C124.331 4.51063 122.561 2.65061 120.381 1.47061L120.181 1.37061L119.941 1.2406C119.381 0.960603 118.761 0.710613 118.091 0.500613C114.851 -0.459387 111.431 -0.0293956 108.451 1.7106C105.511 3.4206 103.321 6.22063 102.291 9.61063C101.281 12.9806 101.541 16.5306 103.061 19.5806C104.591 22.6806 107.201 24.9406 110.431 25.9106C111.551 26.2506 112.701 26.4206 113.851 26.4206C115.991 26.4206 118.151 25.8206 120.061 24.7006C123.011 22.9906 125.191 20.1806 126.211 16.8006C127.251 13.4606 126.981 9.91063 125.461 6.83063ZM108.361 20.4606C107.601 19.7606 106.971 18.9106 106.471 17.9106C105.391 15.7006 105.191 13.1506 105.941 10.7006C106.301 9.48063 106.881 8.36063 107.631 7.39063C108.381 6.42063 109.311 5.60062 110.381 4.98062C111.491 4.32062 112.741 3.92061 114.011 3.81061C113.251 4.46061 112.671 5.18062 112.311 5.98062C111.761 7.18062 111.421 9.13063 112.891 11.6406C113.751 13.1106 113.551 13.4506 111.751 15.1106C110.461 16.3106 108.751 17.8906 108.361 20.4606ZM122.611 15.7206C121.861 18.1806 120.291 20.2106 118.171 21.4506C116.291 22.5506 114.161 22.8906 112.151 22.4506C111.761 20.2706 112.841 19.2606 114.321 17.8906C116.031 16.3106 118.611 13.9106 116.131 9.72061C115.351 8.39061 115.641 7.77061 115.731 7.56061C116.121 6.71061 117.471 5.86061 119.341 5.28061C120.471 6.08061 121.381 7.1706 122.061 8.5206C122.701 9.8306 123.031 11.3006 123.031 12.7806C123.041 13.7606 122.901 14.7606 122.611 15.7206Z" fill="#2A3720"/>
<path d="M7.75 76.5605L0 84.3105H6.17001L13.92 76.5605H7.75ZM145.39 29.8805L114.34 60.9505L68.85 15.4604L43.29 41.0204H49.46L68.85 21.6305L111.25 64.0305L90.98 84.3205H97.15L114.35 67.1205L131.55 84.3205H137.71L117.44 64.0305L145.4 36.0705L193.67 84.3205H199.84L145.39 29.8805Z" fill="#2A3720"/>
<path d="M38.8402 46.1408C34.7702 44.3308 32.5302 38.7508 32.0902 37.5808C31.8702 36.9908 31.3102 36.5908 30.6802 36.5908C30.0602 36.5908 29.4902 36.9908 29.2702 37.5808C28.8302 38.7608 26.6002 44.3308 22.5202 46.1408C22.0402 46.3608 21.7402 46.8308 21.7402 47.3508C21.7402 47.4608 21.7603 47.5708 21.7903 47.6808C21.9903 48.4708 22.8603 48.9108 23.6003 48.5808C27.0903 47.0408 29.3903 43.5708 30.6703 41.0008C31.9603 43.5708 34.2602 47.0308 37.7502 48.5808C37.9202 48.6608 38.1002 48.6908 38.2702 48.6908C38.8502 48.6908 39.4002 48.2908 39.5602 47.6808C39.7302 47.0608 39.4302 46.4008 38.8402 46.1408Z" fill="#2A3720"/>
<path d="M41.0698 58.5707C35.6498 56.3607 32.6998 49.0207 32.1398 47.4807C31.9198 46.8707 31.3298 46.4707 30.6798 46.4707C30.0298 46.4707 29.4498 46.8807 29.2298 47.4807C28.6698 49.0207 25.7198 56.3607 20.2998 58.5707C19.6798 58.8207 19.3498 59.4807 19.5098 60.1307V60.1407C19.7198 60.9107 20.5598 61.3507 21.2998 61.0507C26.0898 59.1107 29.1198 54.2007 30.6798 50.8907C32.2498 54.1907 35.2798 59.1107 40.0698 61.0507C40.8198 61.3507 41.6498 60.9107 41.8598 60.1407V60.1307C42.0198 59.4807 41.6898 58.8207 41.0698 58.5707Z" fill="#2A3720"/>
<path d="M42.2 73.4808C36.19 71.1808 32.48 64.8608 30.69 60.9308C28.89 64.8708 25.18 71.1808 19.18 73.4808C18.44 73.7708 17.6 73.3408 17.4 72.5708C17.23 71.9208 17.57 71.2408 18.2 71.0108C24.71 68.5508 28.24 60.1908 29.2 57.5708C29.43 56.9408 30.02 56.5308 30.69 56.5308C31.36 56.5308 31.95 56.9408 32.18 57.5708C33.14 60.1908 36.67 68.5408 43.18 71.0108C43.81 71.2508 44.14 71.9208 43.98 72.5708C43.78 73.3408 42.94 73.7708 42.2 73.4808Z" fill="#2A3720"/>
<path d="M54.54 55.9107C54.81 56.0407 55.11 56.0407 55.38 55.9307C57.19 55.1307 58.43 53.4607 59.21 52.0407C59.99 53.4607 61.24 55.1307 63.04 55.9307C63.17 55.9907 63.3 56.0107 63.44 56.0107C63.59 56.0107 63.74 55.9807 63.88 55.9107C64.15 55.7807 64.35 55.5407 64.43 55.2407C64.55 54.7607 64.32 54.2707 63.87 54.0707C61.69 53.1007 60.48 50.0507 60.26 49.4507C60.1 49.0107 59.68 48.7207 59.22 48.7207C58.76 48.7207 58.34 49.0107 58.18 49.4507C57.96 50.0507 56.74 53.1107 54.56 54.0707C54.11 54.2707 53.87 54.7607 54 55.2507C54.07 55.5407 54.27 55.7807 54.54 55.9107Z" fill="#2A3720"/>
<path d="M53.2502 64.8307C53.5102 64.9607 53.8101 64.9707 54.0801 64.8707C56.5501 63.8707 58.2101 61.5307 59.2101 59.5707C60.2101 61.5307 61.8701 63.8707 64.3401 64.8707C64.4601 64.9207 64.5902 64.9407 64.7202 64.9407C64.8802 64.9407 65.0301 64.9007 65.1801 64.8307C65.4401 64.7007 65.6401 64.4607 65.7101 64.1707C65.8401 63.6807 65.5802 63.1707 65.1102 62.9807C62.1802 61.7907 60.5701 57.7507 60.2801 56.9507C60.1201 56.5007 59.6901 56.2007 59.2101 56.2007C58.7301 56.2007 58.3102 56.5007 58.1402 56.9407C57.8502 57.7407 56.2401 61.7707 53.3101 62.9707C52.8401 63.1607 52.5801 63.6707 52.7101 64.1607C52.7901 64.4607 52.9802 64.7007 53.2502 64.8307Z" fill="#2A3720"/>
<path d="M66.2804 72.1808C62.7504 70.8408 60.8104 66.2308 60.3004 64.8508C60.1304 64.3908 59.7004 64.0908 59.2104 64.0908C58.7204 64.0908 58.2904 64.3908 58.1204 64.8508C57.6104 66.2308 55.6804 70.8508 52.1404 72.1808C51.6604 72.3608 51.4004 72.8808 51.5304 73.3808C51.6004 73.6608 51.7904 73.9008 52.0504 74.0308C52.2004 74.1108 52.3604 74.1408 52.5204 74.1408C52.6404 74.1408 52.7704 74.1208 52.8804 74.0708C56.0904 72.8408 58.1504 69.5908 59.2004 67.4508C60.2504 69.5908 62.3104 72.8408 65.5204 74.0708C65.7904 74.1708 66.0904 74.1608 66.3504 74.0208C66.6104 73.8908 66.8004 73.6508 66.8704 73.3708C67.0204 72.8808 66.7604 72.3608 66.2804 72.1808Z" fill="#2A3720"/>
<path d="M236.781 17.5742H232.202L215.84 54.683H220.419L224.167 46.2482L225.884 42.263L234.513 22.769L243.11 42.263L244.849 46.2482L248.575 54.683H253.154L236.781 17.5742Z" fill="#2A3720"/>
<path d="M293.287 29.4645C293.287 22.4877 287.282 17.5845 279.614 17.5845H264.537V54.6933H268.749V41.3553H278.588L287.973 54.6933H292.779L283.167 40.9665C289.064 39.7353 293.287 35.2857 293.287 29.4645ZM268.749 37.3377V21.5913H278.858C284.895 21.5913 288.999 24.4965 288.999 29.4645C288.999 34.4325 284.895 37.3377 278.858 37.3377H268.749Z" fill="#2A3720"/>
<path d="M323.451 17.5742H318.872L302.51 54.683H307.089L310.837 46.2482L312.554 42.263L321.183 22.769L329.78 42.263L331.519 46.2482L335.245 54.683H339.824L323.451 17.5742Z" fill="#2A3720"/>
<path d="M364.869 34.5302L380.486 17.5742H374.913L356.11 38.0942V17.5742H351.898V54.683H356.11V43.5482L361.942 37.3922L376.036 54.683H381.501L364.869 34.5302Z" fill="#2A3720"/>
<path d="M419.409 17.5742V39.2822C419.409 46.421 414.722 51.4862 408.134 51.4862C401.546 51.4862 396.837 46.4102 396.837 39.2822V17.5742H392.625V39.2822C392.625 48.689 399.04 55.3202 408.134 55.3202C417.195 55.3202 423.621 48.6998 423.621 39.2822V17.5742H419.409Z" fill="#2A3720"/>
<path d="M485.072 17.5742V33.7742H463.202V17.5742H458.99V54.683H463.202V37.7594H485.072V54.683H489.284V17.5742H485.072Z" fill="#2A3720"/>
<path d="M503.217 17.5742V54.683H507.429V17.5742H503.217Z" fill="#2A3720"/>
<path d="M524.979 50.6762V17.5742H520.767V54.683H545.229V50.6762H524.979Z" fill="#2A3720"/>
<path d="M560.349 50.6762V17.5742H556.137V54.683H580.599V50.6762H560.349Z" fill="#2A3720"/>
<path d="M364.58 71.7346H363.068C362.978 71.2996 362.822 70.9175 362.598 70.5882C362.379 70.2589 362.11 69.9825 361.793 69.7589C361.48 69.5313 361.133 69.3605 360.751 69.2467C360.368 69.1329 359.97 69.076 359.555 69.076C358.799 69.076 358.114 69.267 357.5 69.6492C356.891 70.0313 356.405 70.5943 356.043 71.3382C355.685 72.0822 355.506 72.9948 355.506 74.0762C355.506 75.1575 355.685 76.0701 356.043 76.8141C356.405 77.558 356.891 78.121 357.5 78.5032C358.114 78.8853 358.799 79.0764 359.555 79.0764C359.97 79.0764 360.368 79.0194 360.751 78.9056C361.133 78.7918 361.48 78.6231 361.793 78.3995C362.11 78.1719 362.379 77.8934 362.598 77.5641C362.822 77.2308 362.978 76.8486 363.068 76.4177H364.58C364.466 77.056 364.259 77.6271 363.958 78.1312C363.657 78.6353 363.283 79.0642 362.836 79.4178C362.389 79.7674 361.887 80.0337 361.33 80.2166C360.777 80.3996 360.186 80.4911 359.555 80.4911C358.49 80.4911 357.543 80.2309 356.714 79.7105C355.885 79.1902 355.232 78.4503 354.756 77.4909C354.281 76.5315 354.043 75.3933 354.043 74.0762C354.043 72.759 354.281 71.6208 354.756 70.6614C355.232 69.702 355.885 68.9621 356.714 68.4418C357.543 67.9214 358.49 67.6613 359.555 67.6613C360.186 67.6613 360.777 67.7527 361.33 67.9357C361.887 68.1186 362.389 68.3869 362.836 68.7406C363.283 69.0902 363.657 69.517 363.958 70.0211C364.259 70.5211 364.466 71.0923 364.58 71.7346ZM382.39 74.0762C382.39 75.3933 382.152 76.5315 381.677 77.4909C381.201 78.4503 380.549 79.1902 379.719 79.7105C378.89 80.2309 377.943 80.4911 376.878 80.4911C375.813 80.4911 374.865 80.2309 374.036 79.7105C373.207 79.1902 372.554 78.4503 372.079 77.4909C371.603 76.5315 371.365 75.3933 371.365 74.0762C371.365 72.759 371.603 71.6208 372.079 70.6614C372.554 69.702 373.207 68.9621 374.036 68.4418C374.865 67.9214 375.813 67.6613 376.878 67.6613C377.943 67.6613 378.89 67.9214 379.719 68.4418C380.549 68.9621 381.201 69.702 381.677 70.6614C382.152 71.6208 382.39 72.759 382.39 74.0762ZM380.927 74.0762C380.927 72.9948 380.746 72.0822 380.384 71.3382C380.026 70.5943 379.54 70.0313 378.927 69.6492C378.317 69.267 377.634 69.076 376.878 69.076C376.122 69.076 375.437 69.267 374.823 69.6492C374.213 70.0313 373.727 70.5943 373.365 71.3382C373.008 72.0822 372.829 72.9948 372.829 74.0762C372.829 75.1575 373.008 76.0701 373.365 76.8141C373.727 77.558 374.213 78.121 374.823 78.5032C375.437 78.8853 376.122 79.0764 376.878 79.0764C377.634 79.0764 378.317 78.8853 378.927 78.5032C379.54 78.121 380.026 77.558 380.384 76.8141C380.746 76.0701 380.927 75.1575 380.927 74.0762ZM389.762 80.3203V67.832H397.251V69.1735H391.275V73.3932H396.69V74.7347H391.275V80.3203H389.762ZM404.67 80.3203V67.832H412.158V69.1735H406.182V73.3932H411.597V74.7347H406.182V80.3203H404.67ZM419.578 80.3203V67.832H427.115V69.1735H421.09V73.3932H426.724V74.7347H421.09V78.9788H427.212V80.3203H419.578ZM434.67 80.3203V67.832H442.207V69.1735H436.182V73.3932H441.816V74.7347H436.182V78.9788H442.304V80.3203H434.67Z" fill="#2A3720"/>
</svg>
